<svg xmlns="http://www.w3.org/2000/svg" xmlns:xlink="http://www.w3.org/1999/xlink" viewBox="0 0 1404 1188"><defs><style>.cls-1,.cls-2{fill:none;}.cls-1,.cls-2,.cls-3{stroke:#fff;stroke-miterlimit:10;stroke-width:36px;}.cls-1{stroke-linecap:square;}.cls-3{fill:url(#Unbenannter_Verlauf);}</style><linearGradient id="Unbenannter_Verlauf" x1="666" y1="294.17" x2="738" y2="294.17" gradientUnits="userSpaceOnUse"><stop offset="0" stop-color="#fff"/><stop offset="1"/></linearGradient></defs><title>logo</title><g id="Ebene_2" data-name="Ebene 2"><g id="Ebene_2-2" data-name="Ebene 2"><g id="TZ"><line class="cls-1" x1="882" y1="90" x2="882" y2="1098"/><line class="cls-1" x1="810" y1="594" x2="1026" y2="594"/><path class="cls-1" d="M1026,234V18H954V258.16a36,36,0,0,0,36,36h0a36,36,0,0,1,36,36V858.08a36,36,0,0,1-36,36h0a36,36,0,0,0-36,36V1170h72V953.92"/><line class="cls-1" x1="954" y1="833.83" x2="954" y2="354.42"/></g><g id="N"><path class="cls-1" d="M1386,594v540a36,36,0,0,1-36,36h0a36,36,0,0,1-36-36V630a36,36,0,0,0-36-36h0a36,36,0,0,0-36,36v540"/><path class="cls-1" d="M1242,18V558a36,36,0,0,0,36,36h0a36,36,0,0,0,36-36V54a36,36,0,0,1,36-36h0a36,36,0,0,1,36,36V558"/></g><g id="L"><polyline class="cls-1" points="810 666 810 1170 882 1170"/><polyline class="cls-1" points="810 522 810 18 882 18"/></g><g id="A"><path class="cls-1" d="M666,1170V630a36,36,0,0,1,36-36h0a36,36,0,0,1,36,36v540"/><line class="cls-2" x1="666" y1="894.07" x2="738" y2="894.07"/><path class="cls-1" d="M666,18V558a36,36,0,0,0,36,36h0a36,36,0,0,0,36-36V18"/><line class="cls-3" x1="666" y1="294.17" x2="738" y2="294.17"/></g><g id="W"><rect class="cls-2" x="450" y="18" width="72" height="1152" rx="36" ry="36"/><path class="cls-2" d="M522,54h0a36,36,0,0,1,36-36h0a36,36,0,0,1,36,36V1134a36,36,0,0,1-36,36h0a36,36,0,0,1-36-36h0"/></g><g id="R"><path class="cls-1" d="M306,18V294.17h36a36,36,0,0,0,36-36V18"/><path class="cls-2" d="M306,294.17V594h36a36,36,0,0,0,36-36V330.17a36,36,0,0,0-36-36h0"/><path class="cls-2" d="M306,594V894.08h36a36,36,0,0,0,36-36V630a36,36,0,0,0-36-36h0"/><line class="cls-1" x1="306" y1="894.08" x2="306" y2="1170"/><path class="cls-1" d="M378,1170V930.08a36,36,0,0,0-36-36h0"/></g><g id="E"><polyline class="cls-1" points="234 294.17 162 294.17 162 18 234 18 234 221.94"/><polyline class="cls-1" points="234 366.04 234 594 162 594 162 294.17"/><polyline class="cls-1" points="162 594 162 894.08 234 894.08"/><polyline class="cls-1" points="234 966.04 234 1170 162 1170 162 894.08"/><line class="cls-1" x1="234" y1="822.08" x2="234" y2="594"/></g><g id="E-2" data-name="E"><polyline class="cls-1" points="1170 294.17 1098 294.17 1098 18 1170 18 1170 221.94"/><polyline class="cls-1" points="1170 366.04 1170 594 1098 594 1098 294.17"/><polyline class="cls-1" points="1098 594 1098 894.08 1170 894.08"/><polyline class="cls-1" points="1170 966.04 1170 1170 1098 1170 1098 894.08"/><line class="cls-1" x1="1170" y1="822.08" x2="1170" y2="594"/></g><g id="V"><path class="cls-1" d="M90,630v504a36,36,0,0,1-36,36H18V612"/><path class="cls-1" d="M18,576V18H54A36,36,0,0,1,90,54V558"/></g></g></g></svg>