<svg width="454" height="512" xmlns="http://www.w3.org/2000/svg"><path d="M453.203 316.168V132.446L91.277 67.098V44.512C91.277 19.968 71.31 0 46.767 0H.795v30.16h45.97c7.912 0 14.35 6.439 14.35 14.352v278.487c0 32.15 26.156 58.305 58.306 58.305h12.07v34.37a49.968 49.968 0 00-20.108-4.21c-27.717 0-50.267 22.55-50.267 50.268S83.667 512 111.384 512c26.022 0 47.486-19.875 50.015-45.24h.253v-85.456h261.39v34.37a49.968 49.968 0 00-20.106-4.21c-27.718 0-50.268 22.55-50.268 50.268S375.218 512 402.936 512c26.021 0 47.486-19.875 50.015-45.24h.252V351.143H119.422c-15.52 0-28.145-12.625-28.145-28.145V311.14l361.926 5.028zM111.384 481.839c-11.087 0-20.107-9.02-20.107-20.107s9.02-20.107 20.107-20.107 20.107 9.02 20.107 20.107-9.02 20.107-20.107 20.107zm291.552 0c-11.087 0-20.107-9.02-20.107-20.107s9.02-20.107 20.107-20.107 20.107 9.02 20.107 20.107-9.02 20.107-20.107 20.107zM242.08 283.072l-60.321-.838v-168.15l60.32 10.89v158.098zm30.16-152.652l55.295 9.984V284.26l-55.295-.768V130.42zM151.598 281.815l-60.32-.838V97.747l60.32 10.89v173.178zm271.445 3.77l-65.348-.908V145.85l65.348 11.799v127.937z" fill="#000" fill-rule="nonzero"/></svg>
