<svg viewBox="0 0 33 32" version="1.1" xmlns="http://www.w3.org/2000/svg" xmlns:xlink="http://www.w3.org/1999/xlink">
      <path d="M31.5,6 C31.5,3.24 29.26,1 26.5,1 L6.5,1 C3.74,1 1.5,3.24 1.5,6 L1.5,26 C1.5,28.76 3.74,31 6.5,31 L16.48,31 L16.48,21.01 L13.5,21 L13.5,16 L16.49,16.01 L16.5,12 C16.5,10.44 17.62,8 20.5,8 L20.88,8 C25.53,8 25.45,8.01 25.45,8.01 L25.45,13.01 L22.41,13.01 C22.41,13.01 21.45,13.02 21.45,14.01 L21.45,16.01 L24.5,16 L24.5,21 L21.5,21 L21.5,31 L26.5,31 C29.26,31 31.5,28.76 31.5,26 L31.5,6 Z M23.5,20 L23.5,17 L21.45,17.01 L20.48,17.01 L20.48,16.01 L20.48,14.01 C20.48,12.73 21.47,12.02 22.39,12.01 L24.49,12.01 L24.49,9 L20.5,9 C18.91,9 17.5,10.38 17.5,12 L17.5,17 L14.5,17 L14.5,20 L17.5,20 L17.44,31 L20.5,31 L20.5,20 L23.5,20 Z M26.5,32 L6.5,32 C3.19,32 0.5,29.31 0.5,26 L0.5,6 C0.5,2.69 3.19,0 6.5,0 L26.5,0 C29.81,0 32.5,2.69 32.5,6 L32.5,26 C32.5,29.31 29.81,32 26.5,32 Z" id="Shape"></path>
</svg>
