<svg width="512" height="510" xmlns="http://www.w3.org/2000/svg"><path d="M468.557 41.345C440.945 14.291 404.333-.365 365.415.008c-38.9.397-75.222 15.822-102.276 43.434l-79.63 81.273a145.052 145.052 0 00-21.357 27.847c-19.088 8.679-24.559 12.438-41.178 29.4l-79.63 81.272C14.29 290.846-.388 327.474.009 366.376c.397 38.9 15.823 75.222 43.435 102.276 27.248 26.697 63.276 41.344 101.603 41.344.512 0 1.026 0 1.539-.008 38.9-.397 75.222-15.822 102.276-43.434l79.63-81.273a145.04 145.04 0 0021.236-27.643c19.073-8.283 24.38-12.334 41.3-29.605l79.63-81.272c27.054-27.612 41.733-64.24 41.336-103.142-.397-38.897-15.823-75.22-43.436-102.274zm-282.949 288.79c10.844 10.624 22.425 19.05 35.017 25.478L176.37 400.78c-8.822 9.004-20.686 14.034-33.409 14.164-12.689.161-24.687-4.656-33.69-13.479-9.003-8.821-14.033-20.685-14.164-33.408-.13-12.722 4.657-24.687 13.519-33.73l46.443-47.762c7.197 15.857 17.374 30.67 30.54 43.568zm41.876 115.476c-21.46 21.902-50.298 34.138-81.206 34.454-30.882.308-59.99-11.329-81.892-32.789-21.902-21.459-34.137-50.298-34.454-81.205-.315-30.907 11.329-59.99 32.789-81.892l79.629-81.272c.683-.698 1.33-1.355 1.96-1.994a146.455 146.455 0 00.451 53.322L87.21 313.424c-14.416 14.713-22.24 34.225-22.028 54.94.211 20.717 8.432 40.064 23.145 54.48 14.52 14.227 33.71 22.032 54.123 22.031.271 0 .546 0 .818-.004 20.716-.211 40.064-8.431 54.48-23.145l84.879-86.63c44.15-47.086 17.853-114.83-38.307-131.025 2.876-5.624 20.182-21.976 24.684-26.851 79.036 33.262 92.103 132.47 38.11 187.118l-79.63 81.273zm13.55-210.85c16.437 6.183 31.32 21.165 33.3 40.084-18.687-1.953-35.502-21.836-36.863-41.515 2.055.731 3.25 1.28 3.564 1.43zm85.359-54.896c-10.315-10.106-22.245-18.65-35.19-25.302l44.428-45.346c8.822-9.003 20.686-14.033 33.409-14.164 12.697-.13 24.687 4.656 33.69 13.479 9.003 8.821 14.033 20.685 14.164 33.408.13 12.72-4.657 24.687-13.519 33.73l-46.443 47.76c-7.198-15.854-17.375-30.667-30.54-43.565zm122.886 45.955l-79.629 81.272c-.683.698-1.33 1.356-1.961 1.997a146.438 146.438 0 00-.451-53.327l57.554-59.187c14.416-14.714 22.24-34.226 22.028-54.94-.212-20.717-8.432-40.064-23.145-54.48-14.713-14.417-34.214-22.228-54.94-22.027-20.717.211-40.065 8.431-54.48 23.145l-84.88 86.63c-43.526 44.29-18.412 119.26 39.309 129.33-3.257 7.022-20.454 22.85-25.8 28.663-13.383-5.335-25.095-13.13-36.33-24.14-21.903-21.459-34.138-50.298-34.454-81.205-.204-19.94 4.578-39.118 13.756-56.102.137-.248.278-.496.402-.751a114.858 114.858 0 0118.63-25.038l79.63-81.273c21.458-21.902 50.297-34.138 81.205-34.454 30.906-.294 59.99 11.329 81.892 32.789 21.902 21.459 34.137 50.298 34.454 81.205.314 30.908-11.331 59.991-32.79 81.893z" fill="#000" fill-rule="nonzero"/></svg>
